PathFileType	4	(X/Y/Z)	E:\Qualisys_Data\Carbon_Farble_Plate\Data\Amateur_Runner\S1\T1\S1T1V12_c3d.trc
DataRate	CameraRate	NumFrames	NumMarkers	Units	OrigDataRate	OrigDataStartFrame	OrigNumFrames
200.000000	200.000000	4	39	mm	200.000000	234	312
Frame#	Time	LSHO			RSHO			LICST			RICST			LASIS			LHEEL			RASIS			LTROC			RTROC			SACR			LTH1			LSK4			LTH2			LTH3			RHM5			LSK2			LTH4			RTH1			LTOE			RTH2			RTH3			RTH4			LLEP			RLEP			LSK1			LSK3			RSK1			LHM5			RSK2			LFT1			RSK3			RSK4			LLME			RLME			RTOE			RHEEL			RFT1			RFT2			LFT2			
		X1	Y1	Z1	X2	Y2	Z2	X3	Y3	Z3	X4	Y4	Z4	X5	Y5	Z5	X6	Y6	Z6	X7	Y7	Z7	X8	Y8	Z8	X9	Y9	Z9	X10	Y10	Z10	X11	Y11	Z11	X12	Y12	Z12	X13	Y13	Z13	X14	Y14	Z14	X15	Y15	Z15	X16	Y16	Z16	X17	Y17	Z17	X18	Y18	Z18	X19	Y19	Z19	X20	Y20	Z20	X21	Y21	Z21	X22	Y22	Z22	X23	Y23	Z23	X24	Y24	Z24	X25	Y25	Z25	X26	Y26	Z26	X27	Y27	Z27	X28	Y28	Z28	X29	Y29	Z29	X30	Y30	Z30	X31	Y31	Z31	X32	Y32	Z32	X33	Y33	Z33	X34	Y34	Z34	X35	Y35	Z35	X36	Y36	Z36	X37	Y37	Z37	X38	Y38	Z38	X39	Y39	Z39	

235	1.17	1347.067016601562	1490.722534179688	-535.1759643554688	1386.75732421875	1511.32373046875	-216.1800384521484	1323.99462890625	1040.658081054688	-469.7745361328125	1343.055908203125	1054.807739257812	-173.2471923828125	1371.553833007812	1004.183410644531	-447.4530944824219	1388.384033203125	74.08491516113281	-366.8525695800781	1377.541137695312	1005.014343261719	-183.8483581542969	1269.147705078125	917.3817138671876	-484.9151000976562	1263.752563476562	923.851318359375	-141.2165222167969	1217.035278320312	1064.751953125	-310.7079162597656	1429.064453125	794.899169921875	-468.6143188476562	1379.226928710938	229.1003875732422	-404.5161743164062	1350.891235351562	767.1974487304688	-491.4916381835938	1456.139404296875	695.4759521484375	-451.7170715332031	853.2640380859375	222.2733154296875	-154.5595397949219	1379.207153320312	325.3909301757812	-445.0845642089844	1373.928833007812	671.80224609375	-465.1356201171875	1371.921508789062	777.0282592773438	-176.0960083007812	1639.572509765625	106.2757263183594	-385.4897155761719	1299.857299804688	782.3882446289062	-144.3299865722656	1361.440307617188	676.4964599609375	-181.2694396972656	1284.85009765625	684.2748413085938	-156.3539276123047	1443.3408203125	534.6888427734375	-429.5440063476562	1274.657470703125	513.7518310546875	-188.0977630615234	1463.19287109375	323.1142883300781	-435.3600463867188	1455.313720703125	222.0733489990234	-428.7342529296875	1107.917846679688	429.3560791015625	-165.8935394287109	1576.455810546875	73.96224212646484	-436.47216796875	1074.518310546875	502.9822387695312	-180.0598297119141	1404.500610351562	52.96168518066406	-337.9091491699219	1017.099792480469	386.4185485839844	-174.8346710205078	985.4474487304688	457.9173278808594	-198.0045471191406	1431.86767578125	98.25928497314452	-418.5307922363281	886.5348510742188	364.7783203125	-172.0266723632812	892.689697265625	164.8544616699219	-232.5034332275391	833.34033203125	411.4854125976562	-213.0025939941406	808.689697265625	394.5750427246094	-245.0084228515625	810.1553955078125	399.7877807617188	-186.942138671875	1397.658203125	46.217529296875	-391.7252807617188
236	1.175	1364.248291015625	1485.314819335938	-536.6619873046875	1400.793579101562	1507.0419921875	-217.0071105957031	1338.832763671875	1036.825317382812	-470.5669250488281	1358.123046875	1050.014404296875	-173.7396087646484	1386.50048828125	1000.271545410156	-448.7449340820312	1392.116577148438	73.70429229736328	-367.5154418945312	1392.935668945312	1000.702575683594	-184.5945739746094	1283.8359375	912.5670166015624	-485.1196594238281	1279.586547851562	918.6886596679688	-141.9069671630859	1232.203735351562	1059.529418945312	-310.6127319335938	1444.355102539062	790.4056396484375	-469.3446350097656	1386.992919921875	225.0472106933594	-403.7716064453125	1366.451782226562	762.3863525390625	-491.9426879882812	1471.260620117188	691.0311889648438	-452.4978637695312	874.3641967773438	225.5830230712891	-155.0877227783203	1389.19775390625	321.7303161621094	-444.5653076171875	1389.548095703125	666.877197265625	-465.3477478027344	1390.124877929688	773.39794921875	-175.4232482910156	1645.484375	93.1374053955078	-384.8316040039062	1317.6396484375	778.0540161132812	-144.1241607666016	1381.725341796875	672.5396118164062	-180.3975372314453	1304.616821289062	679.2181396484375	-156.7860260009766	1457.193115234375	529.4149169921875	-430.7933654785156	1298.42236328125	509.0779113769531	-187.2323150634766	1473.0	317.2516174316406	-435.2107238769531	1463.051391601562	216.6365356445312	-427.9968872070312	1130.993408203125	427.2001342773438	-165.7625579833984	1581.23974609375	63.89293670654297	-436.1573791503906	1099.482788085938	501.342041015625	-181.3577880859375	1406.833251953125	51.47566223144531	-337.8799133300781	1039.78173828125	386.1372985839844	-175.5067291259766	1009.587524414062	457.9024658203125	-198.6913299560547	1437.503540039062	94.1555633544922	-418.2744140625	908.9901733398438	367.3419494628906	-172.3045959472656	914.0116577148438	167.2280120849609	-231.9371337890625	856.078857421875	414.2795715332031	-214.6841278076172	831.5279541015625	397.5499267578125	-246.5371551513672	832.6192016601562	403.2119750976562	-188.5462493896484	1398.411010742188	43.34687805175781	-391.1330261230469
237	1.18	1381.3515625	1479.97802734375	-537.87939453125	1415.3251953125	1502.3173828125	-218.1246795654297	1353.463623046875	1032.157348632812	-471.6242370605469	1372.749755859375	1045.229248046875	-173.6586608886719	1401.615478515625	995.6399536132812	-449.6239624023438	1395.956665039062	73.2284164428711	-368.2391662597656	1408.057006835938	995.9210205078124	-184.9724426269531	1298.7587890625	907.8804931640624	-486.1736145019531	1295.34033203125	913.2101440429688	-143.0808563232422	1246.900512695312	1055.001831054688	-311.2927856445312	1458.763549804688	785.3408813476562	-470.4828491210938	1395.087890625	221.7222137451172	-403.1456298828125	1381.067138671875	757.2411499023438	-492.8098449707031	1486.074584960938	686.1226196289062	-452.9691772460938	896.1666870117188	228.3657684326172	-155.27392578125	1399.536987304688	317.6280517578125	-443.6957702636719	1404.33984375	661.6573486328125	-466.0155639648438	1408.567016601562	769.666748046875	-174.8827819824219	1651.542724609375	80.38574981689453	-381.1314697265625	1335.538696289062	773.0292358398438	-144.5157470703125	1402.1865234375	668.8927612304688	-179.1112518310547	1324.35546875	674.3175659179688	-157.2622680664062	1470.885498046875	523.8621215820312	-431.9246520996094	1322.6953125	504.4931640625	-186.4955291748047	1483.542236328125	311.4428405761719	-434.8169860839844	1470.932006835938	211.2490844726562	-427.269287109375	1154.695556640625	425.2337951660156	-165.7938537597656	1585.689697265625	58.22789001464844	-435.334228515625	1124.354125976562	499.9127197265625	-182.2697296142578	1409.23583984375	50.75287628173828	-338.7457885742188	1062.7109375	385.9176330566406	-175.5386199951172	1034.264770507812	458.1502685546875	-199.7663269042969	1441.282348632812	91.74839019775392	-419.7069396972656	931.900634765625	370.2196960449219	-173.0413818359375	936.2177734375	169.4011077880859	-231.6419525146484	879.1332397460938	417.0426635742188	-216.2690582275391	854.9549560546875	400.04345703125	-248.3236999511719	855.4563598632812	405.8611755371094	-190.233642578125	1401.807495117188	42.33908843994141	-391.5257568359375
238	1.185	1398.728881835938	1474.37158203125	-539.09228515625	1429.37890625	1497.483276367188	-218.6409454345703	1368.03564453125	1027.52099609375	-472.5863342285156	1386.953369140625	1041.51318359375	-174.2385864257812	1416.3642578125	991.1682739257812	-450.3785705566406	1399.060302734375	73.2824478149414	-368.9776611328125	1423.160034179688	991.4456176757812	-185.9623107910156	1313.326171875	902.6213989257812	-487.1414794921875	1310.956787109375	907.405517578125	-144.2217864990234	1261.454345703125	1049.811157226562	-312.0745544433594	1472.832275390625	779.8694458007812	-470.980224609375	1403.366577148438	219.3244781494141	-402.6974487304688	1395.456298828125	752.1476440429688	-494.3939819335938	1499.930053710938	680.0487060546875	-454.801513671875	919.170654296875	231.0481414794922	-155.1769409179688	1410.157836914062	314.8226318359375	-443.2509460449219	1417.829467773438	656.2040405273438	-467.835693359375	1427.0849609375	766.350341796875	-174.3653259277344	1656.13916015625	73.85958099365234	-376.6600952148438	1353.383422851562	768.1341552734375	-145.0497894287109	1422.802612304688	665.0674438476562	-178.0294036865234	1344.536743164062	668.95947265625	-157.2039337158203	1485.3173828125	518.7429809570312	-432.87109375	1347.211547851562	499.5762329101562	-186.1582489013672	1494.2060546875	306.2886962890625	-434.879150390625	1478.811157226562	206.5303192138672	-426.883544921875	1178.83056640625	423.4673156738281	-165.4217987060547	1591.36474609375	59.41170883178711	-434.6037292480469	1150.373657226562	498.1458740234375	-182.8199157714844	1411.089477539062	50.46928787231445	-338.7237854003906	1086.368530273438	385.2951354980469	-176.1423034667969	1059.227294921875	457.949462890625	-200.7928924560547	1446.952758789062	89.39456939697266	-418.9842224121094	954.9588012695312	372.1725769042969	-174.5645751953125	959.5079956054688	171.285888671875	-230.5033721923828	902.8848876953124	419.3236389160156	-218.0491027832031	878.7540283203125	401.8395080566406	-250.1244354248047	879.0232543945312	408.5501708984375	-192.2568817138672	1403.4443359375	42.32418823242188	-391.8742370605469
